<svg width="64" height="64" viewBox="0 0 64 64" fill="none" xmlns="http://www.w3.org/2000/svg">
<g clip-path="url(#clip0_127_1000)">
<path d="M32 64.0001C49.6731 64.0001 64 49.6732 64 32.0001C64 14.327 49.6731 0 32 0C14.3269 0 0 14.327 0 32.0001C0 49.6732 14.3269 64.0001 32 64.0001Z" fill="#239FDB"/>
<path d="M14.6641 18.6667H46.6528V48.0001H14.6641V18.6667Z" fill="#E9EDED"/>
<path d="M16 20H45.3221V46.6667H16V20Z" fill="#F05542"/>
<path d="M13.9987 14.6667C13.6305 14.6667 13.3321 14.9653 13.332 15.3334V48.6667C13.3321 49.0349 13.6305 49.3334 13.9987 49.3334H47.3208C47.689 49.3334 47.9874 49.0349 47.9875 48.6667V15.3334C47.9874 14.9653 47.689 14.6667 47.3208 14.6667H13.9987ZM14.6654 18.6667H46.6541V48.0001H14.6654V18.6667Z" fill="#2B4255"/>
<path d="M16.6667 17.3333C17.0349 17.3333 17.3333 17.0349 17.3333 16.6667C17.3333 16.2985 17.0349 16 16.6667 16C16.2985 16 16 16.2985 16 16.6667C16 17.0349 16.2985 17.3333 16.6667 17.3333Z" fill="#F8B74E" fill-opacity="0.976"/>
<path d="M19.3307 17.3333C19.6989 17.3333 19.9974 17.0349 19.9974 16.6667C19.9974 16.2985 19.6989 16 19.3307 16C18.9625 16 18.6641 16.2985 18.6641 16.6667C18.6641 17.0349 18.9625 17.3333 19.3307 17.3333Z" fill="#25B39E"/>
<path d="M21.9987 17.3333C22.3669 17.3333 22.6654 17.0349 22.6654 16.6667C22.6654 16.2985 22.3669 16 21.9987 16C21.6305 16 21.332 16.2985 21.332 16.6667C21.332 17.0349 21.6305 17.3333 21.9987 17.3333Z" fill="#F05542"/>
<path d="M40.67 42.0114C43.5583 39.123 43.5958 34.4777 40.7539 31.6357C37.9119 28.7938 33.2666 28.8313 30.3783 31.7196C27.4899 34.608 27.4523 39.2533 30.2943 42.0953C33.1363 44.9373 37.7817 44.8997 40.67 42.0114Z" fill="#E9EDED"/>
<path d="M36 33.3335H32V45.3335H36V33.3335Z" fill="#34485C"/>
<path d="M22.6641 37.3335H18.6641V45.3335H22.6641V37.3335Z" fill="#34485C"/>
<path d="M22.6641 40H18.6641V45.3333H22.6641V40Z" fill="#25B39E"/>
<path d="M29.332 28H25.332V45.3333H29.332V28Z" fill="#34485C"/>
<path d="M29.332 36H25.332V45.3333H29.332V36Z" fill="#25B39E"/>
<path d="M36 36H32V45.3333H36V36Z" fill="#25B39E"/>
<path d="M42.6641 26.6667H38.6641V45.3334H42.6641V26.6667Z" fill="#34485C"/>
<path d="M42.6641 29.3335H38.6641V45.3335H42.6641V29.3335Z" fill="#25B39E"/>
<path fill-rule="evenodd" clip-rule="evenodd" d="M35.5839 28.8591C33.5346 28.8751 31.479 29.6728 29.9094 31.242C26.7702 34.3812 26.7249 39.4586 29.8261 42.5598C32.7699 45.5036 37.4918 45.6059 40.649 42.9244L42.5578 44.8333C42.449 45.1249 42.4273 45.4418 42.4953 45.7455C42.5632 46.0493 42.718 46.3267 42.9407 46.5442L49.2427 52.8463C49.3901 53.0029 49.5675 53.1283 49.7643 53.2151C49.961 53.3019 50.1732 53.3484 50.3883 53.3517C50.6033 53.3549 50.8169 53.3149 51.0162 53.2341C51.2155 53.1533 51.3966 53.0334 51.5486 52.8813C51.7007 52.7292 51.8207 52.548 51.9015 52.3487C51.9823 52.1494 52.0222 51.9358 52.019 51.7208C52.0157 51.5057 51.9693 51.2935 51.8825 51.0968C51.7956 50.9 51.6702 50.7227 51.5136 50.5753L45.2115 44.2734C44.994 44.0507 44.7166 43.896 44.4128 43.8281C44.1091 43.7601 43.7922 43.7818 43.5005 43.8906L41.5917 41.9815C44.2735 38.8243 44.1709 34.1025 41.2271 31.1586C39.6765 29.6081 37.6332 28.8429 35.5839 28.8591ZM35.5892 30.1848C37.2945 30.1702 38.9929 30.8095 40.2845 32.1015C42.8679 34.6848 42.8391 38.8959 40.2012 41.5338C37.5633 44.1716 33.3522 44.2006 30.7689 41.6165C28.1856 39.0331 28.2144 34.822 30.8522 32.1842C32.1712 30.8652 33.8839 30.1984 35.5892 30.1842V30.1848Z" fill="#F8B74E" fill-opacity="0.98"/>
</g>
<defs>
<clipPath id="clip0_127_1000">
<rect width="64" height="64" fill="white"/>
</clipPath>
</defs>
</svg>
