<svg width="64" height="64" viewBox="0 0 64 64" fill="none" xmlns="http://www.w3.org/2000/svg">
<path d="M32 64C49.6731 64 64 49.6731 64 32C64 14.3269 49.6731 0 32 0C14.3269 0 0 14.3269 0 32C0 49.6731 14.3269 64 32 64Z" fill="#FFA40B"/>
<path d="M30.6654 34.6667H44.6654C45.958 34.6667 46.9987 35.8561 46.9987 37.3334V40.0261C46.9987 41.5035 41.4997 46.2032 40.207 46.2032H30.6654C29.3727 46.2032 28.332 45.0139 28.332 43.5365V37.3334C28.332 35.8561 29.3727 34.6667 30.6654 34.6667Z" fill="#4BBFEB"/>
<path d="M28.3333 30.6667C32.3834 30.6667 35.6667 27.3834 35.6667 23.3333C35.6667 19.2832 32.3834 16 28.3333 16C24.2832 16 21 19.2832 21 23.3333C21 27.3834 24.2832 30.6667 28.3333 30.6667Z" fill="#F05542"/>
<path d="M20.3195 15.3193L22.2051 17.2051M28.3333 14.6667V12V14.6667ZM37 23.3333H39.6667H37ZM17 23.3333H19.6667H17ZM34.4616 17.2051L36.3472 15.3193L34.4616 17.2051ZM20.3195 31.3472L22.2051 29.4616L20.3195 31.3472ZM34.4616 29.4616L36.3472 31.3472L34.4616 29.4616Z" stroke="#F17F53"/>
<path d="M31.0013 26.6667C31.0013 25.1939 29.8074 24 28.3346 24C26.8619 24 25.668 25.1939 25.668 26.6667V42.6667C25.668 44.1394 26.8619 45.3333 28.3346 45.3333C29.8074 45.3333 31.0013 44.1394 31.0013 42.6667V26.6667Z" fill="#4BBFEB"/>
<path d="M46.9987 40C46.9987 42.3405 46.3826 44.6397 45.2124 46.6667C44.0421 48.6936 42.3589 50.3768 40.332 51.547C38.3051 52.7173 36.0058 53.3333 33.6654 53.3333C31.3249 53.3333 29.0256 52.7173 26.9987 51.547C24.9718 50.3768 23.2886 48.6936 22.1183 46.6667C20.9481 44.6397 20.332 42.3405 20.332 40" fill="#4BBFEB"/>
<path d="M22.6654 37.3334H36.6653C37.958 37.3334 38.9987 38.5227 38.9987 40.0001V40.4426C38.9987 41.92 33.4997 48.8699 32.207 48.8699H29.6775C28.3848 48.8699 20.332 41.7222 20.332 40.2449V39.9994C20.332 38.5221 21.3727 37.3328 22.6654 37.3328V37.3334Z" fill="#4BBFEB"/>
</svg>
