<svg width="64" height="64" viewBox="0 0 64 64" fill="none" xmlns="http://www.w3.org/2000/svg">
<g clip-path="url(#clip0_127_1037)">
<path d="M32 64.0001C49.6731 64.0001 64 49.6732 64 32.0001C64 14.327 49.6731 0 32 0C14.3269 0 0 14.327 0 32.0001C0 49.6732 14.3269 64.0001 32 64.0001Z" fill="#50B748"/>
<path d="M49.3307 17.3333H14.6641V49.3333H49.3307V17.3333Z" fill="#E9EDED"/>
<path d="M16 18.6667H48V48.0001H16V18.6667Z" fill="#F05542"/>
<path d="M13.9987 13.3333C13.6305 13.3333 13.3321 13.6318 13.332 13.9999V50C13.3321 50.3681 13.6305 50.6667 13.9987 50.6667H49.9987C50.3669 50.6667 50.6653 50.3681 50.6654 50V13.9999C50.6653 13.6318 50.3669 13.3333 49.9987 13.3333H13.9987ZM14.6654 17.3333H49.332V49.3333H14.6654V17.3333Z" fill="#2B4255"/>
<path d="M16.6667 16.0001C17.0349 16.0001 17.3333 15.7016 17.3333 15.3334C17.3333 14.9652 17.0349 14.6667 16.6667 14.6667C16.2985 14.6667 16 14.9652 16 15.3334C16 15.7016 16.2985 16.0001 16.6667 16.0001Z" fill="#F8B74E" fill-opacity="0.976"/>
<path d="M19.3307 16.0001C19.6989 16.0001 19.9974 15.7016 19.9974 15.3334C19.9974 14.9652 19.6989 14.6667 19.3307 14.6667C18.9625 14.6667 18.6641 14.9652 18.6641 15.3334C18.6641 15.7016 18.9625 16.0001 19.3307 16.0001Z" fill="#25B39E"/>
<path d="M21.9987 16.0001C22.3669 16.0001 22.6654 15.7016 22.6654 15.3334C22.6654 14.9652 22.3669 14.6667 21.9987 14.6667C21.6305 14.6667 21.332 14.9652 21.332 15.3334C21.332 15.7016 21.6305 16.0001 21.9987 16.0001Z" fill="#F05542"/>
<path d="M31.3333 25.3672C27.1903 25.7136 24.0031 29.1759 24 33.3333C24.0029 34.5116 24.2662 35.6748 24.7708 36.7396L31.3333 32.9505V25.3672Z" fill="#2B4255"/>
<path d="M32 34.104L25.4375 37.8932C26.1729 38.9533 27.1538 39.8198 28.2965 40.4188C29.4392 41.0178 30.7098 41.3316 32 41.3333C33.2904 41.3323 34.5614 41.0191 35.7046 40.4206C36.8478 39.822 37.8292 38.9558 38.5651 37.8958L32 34.104Z" fill="#25B39E"/>
<path d="M32.6641 25.3672V32.9505L39.2266 36.7396C39.7774 35.5723 40.0377 34.289 39.9851 32.9993C39.9325 31.7097 39.5686 30.4519 38.9245 29.3333C38.2782 28.2163 37.3714 27.2722 36.2812 26.5815C35.1911 25.8909 33.9501 25.4743 32.6641 25.3672Z" fill="#F8B74E" fill-opacity="0.98"/>
</g>
<defs>
<clipPath id="clip0_127_1037">
<rect width="64" height="64" fill="white"/>
</clipPath>
</defs>
</svg>
