<svg width="64" height="64" viewBox="0 0 64 64" fill="none" xmlns="http://www.w3.org/2000/svg">
<g clip-path="url(#clip0_127_1052)">
<path d="M32 64.0001C49.6731 64.0001 64 49.6732 64 32.0001C64 14.327 49.6731 0 32 0C14.3269 0 0 14.327 0 32.0001C0 49.6732 14.3269 64.0001 32 64.0001Z" fill="#239FDB"/>
<path d="M17.3333 21.3335C16.5947 21.3335 16 21.9281 16 22.6668V25.3335V40.0002V41.3335H17.3333H46.6667H48V40.0002V25.3335V22.6668C48 21.9281 47.4053 21.3335 46.6667 21.3335H17.3333Z" fill="#2B4255"/>
<path d="M46.6134 22.8721H17.3828V40.0002H46.6134V22.8721Z" fill="#4BBFEB"/>
<path d="M50.6879 41.2886C50.6879 42.791 49.4785 44.0005 47.9762 44.0005H16.0439C14.5415 44.0005 13.332 42.791 13.332 41.2886H50.6879Z" fill="#576D7E"/>
<path d="M35.5496 41.2886C35.5496 41.9762 34.9961 42.5296 34.3086 42.5296H29.7137C29.0262 42.5296 28.4727 41.9762 28.4727 41.2886" fill="#CAD1D8"/>
<path d="M31.3306 25.365C30.3965 25.4681 29.4996 25.7891 28.7121 26.3025C27.9246 26.8159 27.2686 27.5072 26.7967 28.3207C26.3293 29.1358 26.0594 30.0494 26.0087 30.9879C25.9581 31.9264 26.1281 32.8636 26.5051 33.7244L31.3306 30.9379V25.365Z" fill="#F05542"/>
<path d="M32.6641 25.365V30.9379L37.4896 33.7244C37.8662 32.8634 38.0358 31.9261 37.9847 30.9875C37.9336 30.049 37.6632 29.1356 37.1953 28.3207C36.7237 27.5076 36.0681 26.8165 35.2811 26.3031C34.4941 25.7898 33.5977 25.4685 32.6641 25.365Z" fill="#F8B74E" fill-opacity="0.976"/>
<path d="M31.9974 32.0916L27.1719 34.878C27.7279 35.637 28.4542 36.2547 29.2924 36.6812C30.1306 37.1078 31.0571 37.3313 31.9974 37.3337C32.9381 37.3317 33.8652 37.1083 34.7039 36.6817C35.5425 36.2552 36.2693 35.6374 36.8255 34.878L31.9974 32.0916Z" fill="#34485C"/>
</g>
<defs>
<clipPath id="clip0_127_1052">
<rect width="64" height="64" fill="white"/>
</clipPath>
</defs>
</svg>
