<svg width="64" height="64" viewBox="0 0 64 64" fill="none" xmlns="http://www.w3.org/2000/svg">
<g clip-path="url(#clip0_127_1022)">
<path d="M32 64.0001C49.6731 64.0001 64 49.6732 64 32.0001C64 14.327 49.6731 0 32 0C14.3269 0 0 14.327 0 32.0001C0 49.6732 14.3269 64.0001 32 64.0001Z" fill="#16A89F"/>
<path d="M17.3359 11.9995V45.3328H20.5156H32.7786H37.3359H44.0026V40.0908V35.6219V21.7V20.3667V18.6662L37.3359 11.9995H17.3359Z" fill="#E9EDED"/>
<path d="M20 25.9995H38.6667M20 17.9995H34.6667H20ZM20 21.9995H38.6667H20Z" stroke="#2B4255"/>
<path d="M50.66 32H34.668V41.3333H50.66V32Z" fill="#F17F53"/>
<path fill-rule="evenodd" clip-rule="evenodd" d="M34.668 31.9995L42.6683 37.3328L50.668 31.9995" fill="#F05542"/>
<path d="M38.6668 53.3328V47.9995H20V53.3328H38.6668Z" fill="#4BBFEB"/>
<path d="M20.0013 53.3328V47.9995L14.668 50.6662L20.0013 53.3328ZM38.668 53.3328H40.668C41.776 53.3328 42.668 52.4408 42.668 51.3328V49.9995C42.668 48.8915 41.9076 47.9995 40.668 47.9995H38.668V53.3328Z" fill="#E9EDED"/>
<path d="M16.0013 51.3328L14.668 50.6662L16.0013 49.9995V51.3328ZM38.668 53.3328V47.9995H37.3346V53.3328H38.668Z" fill="#34485C"/>
<path d="M25.3346 36.6599H32.0013M26.668 39.3266H25.3346H26.668ZM24.0013 36.6599H22.668H24.0013ZM28.0013 39.3266H32.0013H28.0013Z" stroke="#F05542"/>
<path fill-rule="evenodd" clip-rule="evenodd" d="M37.3359 11.9995V18.6662H44.0026" fill="#576D7E"/>
</g>
<defs>
<clipPath id="clip0_127_1022">
<rect width="64" height="64" fill="white"/>
</clipPath>
</defs>
</svg>
