<svg xmlns="http://www.w3.org/2000/svg" version="1.1" xmlns:xlink="http://www.w3.org/1999/xlink" xmlns:svgjs="http://svgjs.com/svgjs" width="1440" height="560" preserveAspectRatio="none" viewBox="0 0 1440 560"><g mask="url(&quot;#SvgjsMask1122&quot;)" fill="none"><rect width="276.64" height="276.64" clip-path="url(&quot;#SvgjsClipPath1123&quot;)" x="471.06" y="-39.78" fill="url(#SvgjsPattern1124)" transform="rotate(219.09, 609.38, 98.54)"></rect><rect width="205.2" height="205.2" clip-path="url(&quot;#SvgjsClipPath1125&quot;)" x="-93.81" y="133.04" fill="url(#SvgjsPattern1126)" transform="rotate(161.9, 8.79, 235.64)"></rect><rect width="300" height="300" clip-path="url(&quot;#SvgjsClipPath1127&quot;)" x="27.19" y="52.56" fill="url(#SvgjsPattern1128)" transform="rotate(44.66, 177.19, 202.56)"></rect><rect width="252" height="252" clip-path="url(&quot;#SvgjsClipPath1129&quot;)" x="503.2" y="401.22" fill="url(#SvgjsPattern1130)" transform="rotate(186.2, 629.2, 527.22)"></rect><path d="M1027.29 132.68 L880.42 222.62L861.0314863195085 84.82648631950846z" fill="rgba(2, 117, 216, 1)"></path><path d="M557.59 5.99L545.23 9.33 539.26-2 526.89 1.35 520.92-9.98 508.56-6.64 502.58-17.96M560.79-1.35L548.43 2 542.45-9.33 530.09-5.99 524.11-17.31 511.75-13.97 505.78-25.3M563.98-8.68L551.62-5.34 545.64-16.67 533.28-13.32 527.31-24.65 514.94-21.31 508.97-32.63" stroke="#d3b714" stroke-width="1.19" stroke-dasharray="2, 2"></path><rect width="348" height="348" clip-path="url(&quot;#SvgjsClipPath1131&quot;)" x="-149.17" y="-94.7" fill="url(#SvgjsPattern1132)" transform="rotate(332.64, 24.83, 79.3)"></rect><rect width="155.04" height="155.04" clip-path="url(&quot;#SvgjsClipPath1133&quot;)" x="1047.92" y="301.64" fill="url(#SvgjsPattern1134)" transform="rotate(193.74, 1125.44, 379.16)"></rect><path d="M353.21 300.62L358.77 312.15 348.74 320.11 354.31 331.64 344.28 339.61 349.84 351.14 339.81 359.1M345.41 298.83L350.97 310.36 340.94 318.32 346.51 329.86 336.48 337.82 342.04 349.35 332.01 357.31M337.61 297.04L343.18 308.58 333.15 316.54 338.71 328.07 328.68 336.03 334.25 347.57 324.22 355.53" stroke="#d3b714" stroke-width="2.08" stroke-dasharray="3, 3"></path><rect width="372.4" height="372.4" clip-path="url(&quot;#SvgjsClipPath1135&quot;)" x="33.12" y="372.57" fill="url(#SvgjsPattern1136)" transform="rotate(196.88, 219.32, 558.77)"></rect><rect width="379.68" height="379.68" clip-path="url(&quot;#SvgjsClipPath1137&quot;)" x="-50.54" y="278.95" fill="url(#SvgjsPattern1138)" transform="rotate(285.57, 139.3, 468.79)"></rect><circle r="60.89005739590062" cx="417.2" cy="292.2" stroke="rgba(2, 117, 216, 1)" stroke-width="1.19" stroke-dasharray="2, 2"></circle></g><defs><mask id="SvgjsMask1122"><rect width="1440" height="560" fill="#ffffff"></rect></mask><pattern x="0" y="0" width="276.64" height="10.64" patternUnits="userSpaceOnUse" id="SvgjsPattern1124"><rect width="276.64" height="5.32" x="0" y="0" fill="#037b0b"></rect><rect width="276.64" height="5.32" x="0" y="5.32" fill="rgba(0, 0, 0, 0)"></rect></pattern><clipPath id="SvgjsClipPath1123"><circle r="69.16" cx="609.38" cy="98.54"></circle></clipPath><pattern x="0" y="0" width="10.26" height="10.26" patternUnits="userSpaceOnUse" id="SvgjsPattern1126"><path d="M5.13 1L5.13 9.26M1 5.13L9.26 5.13" stroke="rgba(2, 117, 216, 1)" fill="none" stroke-width="3.49"></path></pattern><clipPath id="SvgjsClipPath1125"><circle r="51.3" cx="8.79" cy="235.64"></circle></clipPath><pattern x="0" y="0" width="6" height="6" patternUnits="userSpaceOnUse" id="SvgjsPattern1128"><path d="M3 1L3 5M1 3L5 3" stroke="#d3b714" fill="none" stroke-width="1"></path></pattern><clipPath id="SvgjsClipPath1127"><circle r="75" cx="177.19" cy="202.56"></circle></clipPath><pattern x="0" y="0" width="252" height="6" patternUnits="userSpaceOnUse" id="SvgjsPattern1130"><rect width="252" height="3" x="0" y="0" fill="rgba(2, 117, 216, 1)"></rect><rect width="252" height="3" x="0" y="3" fill="rgba(0, 0, 0, 0)"></rect></pattern><clipPath id="SvgjsClipPath1129"><circle r="63" cx="629.2" cy="527.22"></circle></clipPath><pattern x="0" y="0" width="6" height="6" patternUnits="userSpaceOnUse" id="SvgjsPattern1132"><path d="M0 6L3 0L6 6" stroke="rgba(2, 117, 216, 1)" fill="none"></path></pattern><clipPath id="SvgjsClipPath1131"><circle r="87" cx="24.83" cy="79.3"></circle></clipPath><pattern x="0" y="0" width="155.04" height="6.46" patternUnits="userSpaceOnUse" id="SvgjsPattern1134"><rect width="155.04" height="3.23" x="0" y="0" fill="rgba(2, 117, 216, 1)"></rect><rect width="155.04" height="3.23" x="0" y="3.23" fill="rgba(0, 0, 0, 0)"></rect></pattern><clipPath id="SvgjsClipPath1133"><circle r="38.76" cx="1125.44" cy="379.16"></circle></clipPath><pattern x="0" y="0" width="372.4" height="13.3" patternUnits="userSpaceOnUse" id="SvgjsPattern1136"><rect width="372.4" height="6.65" x="0" y="0" fill="#d3b714"></rect><rect width="372.4" height="6.65" x="0" y="6.65" fill="rgba(0, 0, 0, 0)"></rect></pattern><clipPath id="SvgjsClipPath1135"><circle r="93.1" cx="219.32" cy="558.77"></circle></clipPath><pattern x="0" y="0" width="9.04" height="9.04" patternUnits="userSpaceOnUse" id="SvgjsPattern1138"><path d="M4.52 1L4.52 8.04M1 4.52L8.04 4.52" stroke="rgba(2, 117, 216, 1)" fill="none" stroke-width="2.41"></path></pattern><clipPath id="SvgjsClipPath1137"><circle r="94.92" cx="139.3" cy="468.79"></circle></clipPath></defs></svg>