<svg xmlns="http://www.w3.org/2000/svg" version="1.1" xmlns:xlink="http://www.w3.org/1999/xlink" xmlns:svgjs="http://svgjs.com/svgjs" width="1440" height="560" preserveAspectRatio="none" viewBox="0 0 1440 560"><g clip-path="url(&quot;#SvgjsClipPath1023&quot;)" fill="none"><rect width="1440" height="560" x="0" y="0" fill="rgba(255, 199, 42, 1)"></rect><circle r="93.335" cx="-29.17" cy="21.94" stroke="#0275d8" stroke-opacity="1" stroke-width="2"></circle><circle r="93.335" cx="280.21" cy="326.89" stroke="#0275d8" stroke-opacity="1" stroke-width="2"></circle><circle r="93.335" cx="684.81" cy="784.7" stroke="#0275d8" stroke-opacity="1" stroke-width="2"></circle><circle r="76.5" cx="573.31" cy="82.54" stroke="#0275d8" stroke-opacity="1" stroke-width="2"></circle><circle r="87.26" cx="1013.72" cy="532.75" stroke="#0275d8" stroke-opacity="1" stroke-width="2"></circle><circle r="176.485" cx="1105.07" cy="468.18" stroke="#0275d8" stroke-opacity="1" stroke-width="2"></circle><circle r="82.015" cx="888.26" cy="111.17" stroke="#0275d8" stroke-opacity="1" stroke-width="2"></circle><circle r="93.84" cx="614.17" cy="12.76" stroke="#0275d8" stroke-opacity="1" stroke-width="2"></circle><circle r="89.445" cx="1146.92" cy="154.8" stroke="#0275d8" stroke-opacity="1" stroke-width="2"></circle><circle r="52.725" cx="14.53" cy="53.6" stroke="#0275d8" stroke-opacity="1" stroke-width="2"></circle><circle r="170.345" cx="841.12" cy="187.9" stroke="#0275d8" stroke-opacity="1" stroke-width="2"></circle><circle r="118.63" cx="1300.41" cy="508.09" stroke="#0275d8" stroke-opacity="1" stroke-width="2"></circle><circle r="173.535" cx="114.56" cy="57.47" stroke="#0275d8" stroke-opacity="1" stroke-width="2"></circle><circle r="102.11" cx="161.37" cy="353.86" stroke="#0275d8" stroke-opacity="1" stroke-width="2"></circle><circle r="115.875" cx="214.26" cy="348.12" stroke="#0275d8" stroke-opacity="1" stroke-width="2"></circle><circle r="154.215" cx="1363.09" cy="108.84" stroke="#0275d8" stroke-opacity="1" stroke-width="2"></circle><circle r="67.435" cx="532.79" cy="447.5" stroke="#0275d8" stroke-opacity="1" stroke-width="2"></circle><circle r="156.155" cx="1165.57" cy="427.23" stroke="#0275d8" stroke-opacity="1" stroke-width="2"></circle><circle r="179.005" cx="888.89" cy="87.53" stroke="#0275d8" stroke-opacity="1" stroke-width="2"></circle><circle r="85.955" cx="1223.91" cy="547.62" stroke="#0275d8" stroke-opacity="1" stroke-width="2"></circle><circle r="108.35" cx="14.71" cy="285.68" stroke="#0275d8" stroke-opacity="1" stroke-width="2"></circle><circle r="96.82" cx="20.08" cy="118.1" stroke="#0275d8" stroke-opacity="1" stroke-width="2"></circle><circle r="80.205" cx="1376.5" cy="305.36" stroke="#0275d8" stroke-opacity="1" stroke-width="2"></circle><circle r="144.565" cx="187.27" cy="464.23" stroke="#0275d8" stroke-opacity="1" stroke-width="2"></circle><circle r="149.9" cx="1130.67" cy="335.97" stroke="#0275d8" stroke-opacity="1" stroke-width="2"></circle><circle r="81" cx="296.17" cy="528.43" stroke="#0275d8" stroke-opacity="1" stroke-width="2"></circle><circle r="102.515" cx="799.79" cy="241.92" stroke="#0275d8" stroke-opacity="1" stroke-width="2"></circle><circle r="111.515" cx="619.87" cy="545.47" stroke="#0275d8" stroke-opacity="1" stroke-width="2"></circle><circle r="80.695" cx="1409.57" cy="63.56" stroke="#0275d8" stroke-opacity="1" stroke-width="2"></circle><circle r="117.355" cx="918.9" cy="538.78" stroke="#0275d8" stroke-opacity="1" stroke-width="2"></circle><circle r="47.96" cx="681.08" cy="18.16" stroke="#0275d8" stroke-opacity="1" stroke-width="2"></circle><circle r="86.095" cx="1230.96" cy="309.11" stroke="#0275d8" stroke-opacity="1" stroke-width="2"></circle><circle r="69" cx="1409.28" cy="356.56" stroke="#0275d8" stroke-opacity="1" stroke-width="2"></circle><circle r="129.535" cx="888.01" cy="371.4" stroke="#0275d8" stroke-opacity="1" stroke-width="2"></circle><circle r="90.73" cx="774.05" cy="540.15" stroke="#0275d8" stroke-opacity="1" stroke-width="2"></circle><circle r="121.97" cx="1095.14" cy="306.22" stroke="#0275d8" stroke-opacity="1" stroke-width="2"></circle><circle r="80.3" cx="572.36" cy="183.32" stroke="#0275d8" stroke-opacity="1" stroke-width="2"></circle></g><defs><clipPath id="SvgjsClipPath1023"><rect width="1440" height="560" x="0" y="0"></rect></clipPath></defs></svg>