<svg width="257" height="254" viewBox="0 0 257 254" fill="none" xmlns="http://www.w3.org/2000/svg">
<path d="M100.4 71.3V19.7L117.2 4.40001C117.2 4.40001 129.8 -3.29999 139.8 4.40001L251.6 116.7C251.6 116.7 262.1 129.5 251.6 141.4L146.4 249.1C146.4 249.1 130.6 259 113.9 249.1L5.20004 140C4.20004 138.8 0.100041 133.6 0.300041 126C0.500041 119.1 4.10004 114.5 5.20004 113.1L61.8 56.5C61.8 56.5 69.7 51.2 70.2 64.9L71 138.9C72.3 145.3 76.3 161.3 90.4 173.9C108.8 190.4 137.7 195.1 158.9 183.4C190.8 165.9 198.9 115 174 86.8C157.2 67.8 127.8 61.5 100.4 71.3Z" fill="white"/>
</svg>
